<?xml version="1.0" encoding="UTF-8"?>
<svg xmlns="http://www.w3.org/2000/svg" xmlns:xlink="http://www.w3.org/1999/xlink" width="1200" height="900" viewBox="0 0 1200 900">
  <defs>
    <!-- Définition des gradients et patterns -->
    <linearGradient id="serverGradient" x1="0%" y1="0%" x2="0%" y2="100%">
      <stop offset="0%" style="stop-color:#3498db;stop-opacity:1" />
      <stop offset="100%" style="stop-color:#2980b9;stop-opacity:1" />
    </linearGradient>
    <linearGradient id="iotGradient" x1="0%" y1="0%" x2="0%" y2="100%">
      <stop offset="0%" style="stop-color:#e74c3c;stop-opacity:1" />
      <stop offset="100%" style="stop-color:#c0392b;stop-opacity:1" />
    </linearGradient>
    <linearGradient id="aiGradient" x1="0%" y1="0%" x2="0%" y2="100%">
      <stop offset="0%" style="stop-color:#9b59b6;stop-opacity:1" />
      <stop offset="100%" style="stop-color:#8e44ad;stop-opacity:1" />
    </linearGradient>
    <linearGradient id="uiGradient" x1="0%" y1="0%" x2="0%" y2="100%">
      <stop offset="0%" style="stop-color:#2ecc71;stop-opacity:1" />
      <stop offset="100%" style="stop-color:#27ae60;stop-opacity:1" />
    </linearGradient>
    <linearGradient id="apiGradient" x1="0%" y1="0%" x2="0%" y2="100%">
      <stop offset="0%" style="stop-color:#f1c40f;stop-opacity:1" />
      <stop offset="100%" style="stop-color:#f39c12;stop-opacity:1" />
    </linearGradient>
    <linearGradient id="marketingGradient" x1="0%" y1="0%" x2="0%" y2="100%">
      <stop offset="0%" style="stop-color:#1abc9c;stop-opacity:1" />
      <stop offset="100%" style="stop-color:#16a085;stop-opacity:1" />
    </linearGradient>
    <linearGradient id="comptaGradient" x1="0%" y1="0%" x2="0%" y2="100%">
      <stop offset="0%" style="stop-color:#34495e;stop-opacity:1" />
      <stop offset="100%" style="stop-color:#2c3e50;stop-opacity:1" />
    </linearGradient>
    
    <!-- Définition des marqueurs de flèches pour les connexions -->
    <marker id="arrowEnd" markerWidth="10" markerHeight="10" refX="9" refY="3" orient="auto" markerUnits="strokeWidth">
      <path d="M0,0 L0,6 L9,3 z" fill="#333" />
    </marker>
    
    <!-- Définition des styles pour les icônes -->
    <style type="text/css">
      .module {
        stroke: #333;
        stroke-width: 2;
        rx: 10;
        ry: 10;
      }
      .micromodule {
        stroke: #333;
        stroke-width: 1;
        rx: 5;
        ry: 5;
      }
      .title {
        font-family: Arial, sans-serif;
        font-size: 24px;
        font-weight: bold;
        fill: #333;
      }
      .subtitle {
        font-family: Arial, sans-serif;
        font-size: 18px;
        font-weight: bold;
        fill: #333;
      }
      .label {
        font-family: Arial, sans-serif;
        font-size: 14px;
        fill: #333;
      }
      .microlabel {
        font-family: Arial, sans-serif;
        font-size: 12px;
        fill: #333;
      }
      .connection {
        stroke: #333;
        stroke-width: 2;
        fill: none;
        marker-end: url(#arrowEnd);
      }
      .protocol {
        font-family: Arial, sans-serif;
        font-size: 10px;
        font-style: italic;
        fill: #666;
      }
    </style>
  </defs>
  
  <!-- Titre et logo du projet -->
  <text x="600" y="40" text-anchor="middle" class="title">Architecture Système - Le Vieux Moulin</text>
  <text x="600" y="65" text-anchor="middle" class="label">Système de gestion intelligente pour restaurant - Architecture modulaire et granulaire</text>
  
  <!-- Module Serveur Central et Base de données -->
  <g id="serverModule">
    <rect x="450" y="150" width="300" height="200" fill="url(#serverGradient)" class="module" />
    <text x="600" y="175" text-anchor="middle" class="subtitle" fill="white">SERVEUR CENTRAL</text>
    
    <!-- Micromodules du serveur -->
    <rect x="475" y="190" width="120" height="60" fill="#ffffff" class="micromodule" />
    <text x="535" y="210" text-anchor="middle" class="microlabel">API Gateway</text>
    <text x="535" y="225" text-anchor="middle" class="microlabel">Orchestration</text>
    <text x="535" y="240" text-anchor="middle" class="microlabel">(REST/GraphQL)</text>
    
    <rect x="605" y="190" width="120" height="60" fill="#ffffff" class="micromodule" />
    <text x="665" y="210" text-anchor="middle" class="microlabel">Service Bus</text>
    <text x="665" y="225" text-anchor="middle" class="microlabel">Messaging Queue</text>
    <text x="665" y="240" text-anchor="middle" class="microlabel">(MQTT/AMQP)</text>
    
    <rect x="475" y="260" width="250" height="70" fill="#ffffff" class="micromodule" />
    <text x="600" y="280" text-anchor="middle" class="microlabel">Base de Données</text>
    <text x="600" y="295" text-anchor="middle" class="microlabel">PostgreSQL + TimescaleDB</text>
    <text x="600" y="310" text-anchor="middle" class="microlabel">Data Warehouse + Series Temporelles</text>
  </g>
  
  <!-- Module IoT -->
  <g id="iotModule">
    <rect x="100" y="150" width="250" height="200" fill="url(#iotGradient)" class="module" />
    <text x="225" y="175" text-anchor="middle" class="subtitle" fill="white">MODULES IoT</text>
    
    <!-- Micromodules IoT -->
    <rect x="120" y="190" width="100" height="40" fill="#ffffff" class="micromodule" />
    <text x="170" y="210" text-anchor="middle" class="microlabel">Cellules de charge</text>
    <text x="170" y="225" text-anchor="middle" class="microlabel">Bacs Ingrédients</text>
    
    <rect x="120" y="240" width="100" height="40" fill="#ffffff" class="micromodule" />
    <text x="170" y="260" text-anchor="middle" class="microlabel">Sonde Niveau</text>
    <text x="170" y="275" text-anchor="middle" class="microlabel">Huile Friteuse</text>
    
    <rect x="120" y="290" width="100" height="40" fill="#ffffff" class="micromodule" />
    <text x="170" y="310" text-anchor="middle" class="microlabel">Capteurs Temp.</text>
    <text x="170" y="325" text-anchor="middle" class="microlabel">Four/Frigo</text>
    
    <rect x="230" y="240" width="100" height="90" fill="#ffffff" class="micromodule" />
    <text x="280" y="260" text-anchor="middle" class="microlabel">Passerelle IoT</text>
    <text x="280" y="275" text-anchor="middle" class="microlabel">ESP32/Arduino</text>
    <text x="280" y="290" text-anchor="middle" class="microlabel">MQTT Broker</text>
    <text x="280" y="305" text-anchor="middle" class="microlabel">Cache local</text>
  </g>
  
  <!-- Module IA/ML -->
  <g id="aiModule">
    <rect x="450" y="400" width="300" height="180" fill="url(#aiGradient)" class="module" />
    <text x="600" y="425" text-anchor="middle" class="subtitle" fill="white">MODULE IA/ML</text>
    
    <!-- Micromodules IA/ML -->
    <rect x="470" y="440" width="125" height="50" fill="#ffffff" class="micromodule" />
    <text x="532" y="460" text-anchor="middle" class="microlabel">Prévision Consommation</text>
    <text x="532" y="475" text-anchor="middle" class="microlabel">Séries Temporelles</text>
    
    <rect x="605" y="440" width="125" height="50" fill="#ffffff" class="micromodule" />
    <text x="667" y="460" text-anchor="middle" class="microlabel">Détection Anomalies</text>
    <text x="667" y="475" text-anchor="middle" class="microlabel">Surveillance</text>
    
    <rect x="470" y="500" width="125" height="50" fill="#ffffff" class="micromodule" />
    <text x="532" y="520" text-anchor="middle" class="microlabel">Suggestion Recettes</text>
    <text x="532" y="535" text-anchor="middle" class="microlabel">NLP / Recommandation</text>
    
    <rect x="605" y="500" width="125" height="50" fill="#ffffff" class="micromodule" />
    <text x="667" y="520" text-anchor="middle" class="microlabel">Optimisation Stocks</text>
    <text x="667" y="535" text-anchor="middle" class="microlabel">Algo. Génétiques</text>
  </g>
  
  <!-- Module Interface Utilisateur -->
  <g id="uiModule">
    <rect x="100" y="400" width="250" height="180" fill="url(#uiGradient)" class="module" />
    <text x="225" y="425" text-anchor="middle" class="subtitle" fill="white">UI ET COMMANDE VOCALE</text>
    
    <!-- Micromodules UI -->
    <rect x="120" y="440" width="100" height="50" fill="#ffffff" class="micromodule" />
    <text x="170" y="460" text-anchor="middle" class="microlabel">Tablette Murale</text>
    <text x="170" y="475" text-anchor="middle" class="microlabel">Interface Tactile</text>
    
    <rect x="230" y="440" width="100" height="50" fill="#ffffff" class="micromodule" />
    <text x="280" y="460" text-anchor="middle" class="microlabel">Reconnaissance</text>
    <text x="280" y="475" text-anchor="middle" class="microlabel">Vocale</text>
    
    <rect x="120" y="500" width="210" height="50" fill="#ffffff" class="micromodule" />
    <text x="225" y="520" text-anchor="middle" class="microlabel">Dashboard Temps Réel</text>
    <text x="225" y="535" text-anchor="middle" class="microlabel">Stocks/Commandes/Marketing</text>
  </g>
  
  <!-- Module API Externes -->
  <g id="apiModule">
    <rect x="800" y="150" width="250" height="200" fill="url(#apiGradient)" class="module" />
    <text x="925" y="175" text-anchor="middle" class="subtitle" fill="white">INTÉGRATIONS API</text>
    
    <!-- Micromodules API -->
    <rect x="820" y="190" width="100" height="40" fill="#ffffff" class="micromodule" />
    <text x="870" y="210" text-anchor="middle" class="microlabel">Caisse</text>
    <text x="870" y="225" text-anchor="middle" class="microlabel">Enregistreuse</text>
    
    <rect x="930" y="190" width="100" height="40" fill="#ffffff" class="micromodule" />
    <text x="980" y="210" text-anchor="middle" class="microlabel">Fournisseurs</text>
    <text x="980" y="225" text-anchor="middle" class="microlabel">Commande Auto</text>
    
    <rect x="820" y="240" width="100" height="40" fill="#ffffff" class="micromodule" />
    <text x="870" y="260" text-anchor="middle" class="microlabel">Réservation</text>
    <text x="870" y="275" text-anchor="middle" class="microlabel">En Ligne</text>
    
    <rect x="930" y="240" width="100" height="40" fill="#ffffff" class="micromodule" />
    <text x="980" y="260" text-anchor="middle" class="microlabel">CRM</text>
    <text x="980" y="275" text-anchor="middle" class="microlabel">Client</text>
    
    <rect x="820" y="290" width="210" height="40" fill="#ffffff" class="micromodule" />
    <text x="925" y="310" text-anchor="middle" class="microlabel">Connecteurs API (REST/GraphQL)</text>
    <text x="925" y="325" text-anchor="middle" class="microlabel">Gestion OAuth / Webhooks</text>
  </g>
  
  <!-- Module Marketing -->
  <g id="marketingModule">
    <rect x="800" y="400" width="250" height="180" fill="url(#marketingGradient)" class="module" />
    <text x="925" y="425" text-anchor="middle" class="subtitle" fill="white">MARKETING & COMM.</text>
    
    <!-- Micromodules Marketing -->
    <rect x="820" y="440" width="100" height="50" fill="#ffffff" class="micromodule" />
    <text x="870" y="460" text-anchor="middle" class="microlabel">Réseaux Sociaux</text>
    <text x="870" y="475" text-anchor="middle" class="microlabel">Auto-Publications</text>
    
    <rect x="930" y="440" width="100" height="50" fill="#ffffff" class="micromodule" />
    <text x="980" y="460" text-anchor="middle" class="microlabel">Campagnes</text>
    <text x="980" y="475" text-anchor="middle" class="microlabel">Publicitaires</text>
    
    <rect x="820" y="500" width="100" height="50" fill="#ffffff" class="micromodule" />
    <text x="870" y="520" text-anchor="middle" class="microlabel">Notifications</text>
    <text x="870" y="535" text-anchor="middle" class="microlabel">Email/SMS</text>
    
    <rect x="930" y="500" width="100" height="50" fill="#ffffff" class="micromodule" />
    <text x="980" y="520" text-anchor="middle" class="microlabel">Menus en ligne</text>
    <text x="980" y="535" text-anchor="middle" class="microlabel">Automatisés</text>
  </g>
  
  <!-- Module Comptabilité -->
  <g id="comptaModule">
    <rect x="450" y="630" width="300" height="180" fill="url(#comptaGradient)" class="module" />
    <text x="600" y="655" text-anchor="middle" class="subtitle" fill="white">MODULE COMPTABILITÉ AVANCÉ</text>
    
    <!-- Micromodules Comptabilité -->
    <rect x="470" y="670" width="125" height="50" fill="#ffffff" class="micromodule" />
    <text x="532" y="690" text-anchor="middle" class="microlabel">Suivi Financier</text>
    <text x="532" y="705" text-anchor="middle" class="microlabel">Temps Réel</text>
    
    <rect x="605" y="670" width="125" height="50" fill="#ffffff" class="micromodule" />
    <text x="667" y="690" text-anchor="middle" class="microlabel">Rapports Auto.</text>
    <text x="667" y="705" text-anchor="middle" class="microlabel">Quotid./Hebdo./Mens.</text>
    
    <rect x="470" y="730" width="125" height="50" fill="#ffffff" class="micromodule" />
    <text x="532" y="750" text-anchor="middle" class="microlabel">Gestion TVA</text>
    <text x="532" y="765" text-anchor="middle" class="microlabel">Déclarations Fisc.</text>
    
    <rect x="605" y="730" width="125" height="50" fill="#ffffff" class="micromodule" />
    <text x="667" y="750" text-anchor="middle" class="microlabel">Export Comptable</text>
    <text x="667" y="765" text-anchor="middle" class="microlabel">Interface Expert</text>
  </g>
  
  <!-- Connexions entre les modules -->
  <!-- IoT -> Serveur -->
  <path d="M350 250 C400 250, 400 250, 450 250" class="connection" />
  <text x="400" y="240" text-anchor="middle" class="protocol">MQTT/WiFi</text>
  
  <!-- Serveur -> IA/ML -->
  <path d="M600 350 L600 400" class="connection" />
  <text x="610" y="375" text-anchor="middle" class="protocol">REST/Batch</text>
  
  <!-- IA/ML -> Serveur -->
  <path d="M580 400 L580 350" class="connection" />
  <text x="570" y="375" text-anchor="middle" class="protocol">Callbacks</text>
  
  <!-- Serveur -> UI -->
  <path d="M450 300 C350 300, 350 350, 250 400" class="connection" />
  <text x="350" y="320" text-anchor="middle" class="protocol">WebSocket/REST</text>
  
  <!-- UI -> Serveur -->
  <path d="M275 400 C375 350, 375 280, 450 280" class="connection" />
  <text x="350" y="360" text-anchor="middle" class="protocol">HTTPS/REST</text>
  
  <!-- Serveur -> API -->
  <path d="M750 250 L800 250" class="connection" />
  <text x="775" y="240" text-anchor="middle" class="protocol">HTTPS/REST</text>
  
  <!-- API -> Serveur -->
  <path d="M800 270 L750 270" class="connection" />
  <text x="775" y="290" text-anchor="middle" class="protocol">Webhooks</text>
  
  <!-- Serveur -> Marketing -->
  <path d="M720 300 C770 350, 780 370, 800 470" class="connection" />
  <text x="770" y="370" text-anchor="middle" class="protocol">REST/Event</text>
  
  <!-- Marketing -> API -->
  <path d="M925 400 L925 350" class="connection" />
  <text x="935" y="375" text-anchor="middle" class="protocol">OAuth/API</text>
  
  <!-- Serveur -> Comptabilité -->
  <path d="M600 580 L600 630" class="connection" />
  <text x="610" y="605" text-anchor="middle" class="protocol">Batch/ETL</text>
  
  <!-- IA/ML -> Comptabilité -->
  <path d="M450 490 C400 520, 400 600, 450 700" class="connection" />
  <text x="410" y="590" text-anchor="middle" class="protocol">Prévisions</text>
  
  <!-- IA/ML -> Marketing -->
  <path d="M750 490 L800 490" class="connection" />
  <text x="775" y="480" text-anchor="middle" class="protocol">Suggestions</text>
  
  <!-- Cadre pour architecture évolutive -->
  <rect x="50" y="70" width="1100" height="780" stroke="#666" stroke-width="3" stroke-dasharray="10,10" fill="none" rx="20" ry="20" />
  <rect x="60" y="80" width="1080" height="760" stroke="#666" stroke-width="1" stroke-dasharray="5,5" fill="none" rx="15" ry="15" />
  <text x="100" y="105" class="subtitle" fill="#666">Architecture modulaire et granulaire</text>
  
  <!-- Annotations pour l'architecture évolutive -->
  <g id="annotationsEvolution">
    <rect x="830" y="610" width="220" height="170" fill="#ffffff" stroke="#666" stroke-width="1" rx="10" ry="10" />
    <text x="940" y="635" text-anchor="middle" class="subtitle" fill="#666">Architecture évolutive</text>
    <text x="840" y="660" class="microlabel">• Modules indépendants en micro-tâches</text>
    <text x="840" y="680" class="microlabel">• Mises à jour isolées sans impact</text>
    <text x="840" y="700" class="microlabel">• Extensions faciles par module</text>
    <text x="840" y="720" class="microlabel">• Duplication pour 2ème établissement</text>
    <text x="840" y="740" class="microlabel">• APIs documentées OpenAPI 3.0</text>
    <text x="840" y="760" class="microlabel">• Compatibilité multi-établissements</text>
  </g>
  
  <!-- Légende des protocoles -->
  <g id="protocolLegend">
    <rect x="100" y="630" width="250" height="170" fill="#ffffff" stroke="#666" stroke-width="1" rx="10" ry="10" />
    <text x="225" y="655" text-anchor="middle" class="subtitle" fill="#666">Protocoles</text>
    <text x="110" y="680" class="microlabel">• REST/GraphQL : APIs Web</text>
    <text x="110" y="700" class="microlabel">• MQTT : Communication IoT</text>
    <text x="110" y="720" class="microlabel">• WebSocket : UI temps réel</text>
    <text x="110" y="740" class="microlabel">• WiFi/Bluetooth : Capteurs IoT</text>
    <text x="110" y="760" class="microlabel">• HTTPS : Sécurisation communications</text>
    <text x="110" y="780" class="microlabel">• OAuth2 : Authentification APIs</text>
  </g>
  
  <!-- Copyright et date -->
  <text x="600" y="880" text-anchor="middle" class="microlabel" fill="#666">© 2025 Le Vieux Moulin - Architecture Système v1.0</text>
</svg>